<svg xmlns="http://www.w3.org/2000/svg" width="22" height="20" viewBox="0 0 22 20"><defs><clipPath id="mrw0a"><path fill="#fff" d="M4 0h12a4 4 0 0 1 4 4v12a4 4 0 0 1-4 4H4a4 4 0 0 1-4-4V4a4 4 0 0 1 4-4z"/></clipPath></defs><g><g><path fill="#f6ffe9" d="M4 0h12a4 4 0 0 1 4 4v12a4 4 0 0 1-4 4H4a4 4 0 0 1-4-4V4a4 4 0 0 1 4-4z"/><path fill="none" stroke="#bee684" stroke-miterlimit="50" stroke-width="2" d="M4 0h12a4 4 0 0 1 4 4v12a4 4 0 0 1-4 4H4a4 4 0 0 1-4-4V4a4 4 0 0 1 4-4z" clip-path="url(&quot;#mrw0a&quot;)"/></g><g><path fill="#7ec21c" d="M21.704 2.258a.91.91 0 0 0-1.27 0L9.67 12.835 5.534 8.77a.91.91 0 0 0-1.27 0 .872.872 0 0 0 0 1.249l4.771 4.69a.91.91 0 0 0 1.27 0L21.705 3.506a.872.872 0 0 0 0-1.249z"/></g></g></svg>