<svg xmlns="http://www.w3.org/2000/svg" width="18" height="18" viewBox="0 0 18 18"><defs><clipPath id="mljya"><path fill="#fff" d="M17.595 8.15c.354-.36.48-.888.327-1.379a1.297 1.297 0 0 0-1.042-.917l-4.353-.661a.57.57 0 0 1-.429-.326L10.152.747a1.278 1.278 0 0 0-1.156-.751c-.494 0-.938.287-1.156.75L5.893 4.869a.57.57 0 0 1-.429.325l-4.353.66c-.49.075-.888.426-1.042.918a1.38 1.38 0 0 0 .327 1.38l3.15 3.208a.612.612 0 0 1 .164.527l-.743 4.53c-.066.398.034.785.28 1.09a1.264 1.264 0 0 0 1.59.328l3.894-2.138a.56.56 0 0 1 .53 0l3.893 2.138c.19.104.392.158.6.158.38 0 .742-.178.99-.485.247-.306.347-.695.28-1.092l-.743-4.53a.611.611 0 0 1 .165-.526z"/></clipPath></defs><g><g><path fill="none" stroke="#ffdc1b" stroke-miterlimit="50" stroke-width="2" d="M17.595 8.15c.354-.36.48-.888.327-1.379a1.297 1.297 0 0 0-1.042-.917l-4.353-.661a.57.57 0 0 1-.429-.326L10.152.747a1.278 1.278 0 0 0-1.156-.751c-.494 0-.938.287-1.156.75L5.893 4.869a.57.57 0 0 1-.429.325l-4.353.66c-.49.075-.888.426-1.042.918a1.38 1.38 0 0 0 .327 1.38l3.15 3.208a.612.612 0 0 1 .164.527l-.743 4.53c-.066.398.034.785.28 1.09a1.264 1.264 0 0 0 1.59.328l3.894-2.138a.56.56 0 0 1 .53 0l3.893 2.138c.19.104.392.158.6.158.38 0 .742-.178.99-.485.247-.306.347-.695.28-1.092l-.743-4.53a.611.611 0 0 1 .165-.526z" clip-path="url(&quot;#mljya&quot;)"/></g></g></svg>