<svg xmlns="http://www.w3.org/2000/svg" width="20" height="24" viewBox="0 0 20 24"><g><g><path fill="#f78a4d" d="M19.572 18.148c.427.559.611 1.183.538 1.803-.073.617-.394 1.178-.93 1.634-.234.198-.47.386-.702.563-.339.265-.66.515-.948.792-.006.013-.017.018-.022.025-.829.731-1.81 1.023-2.921.883-.096-.012-.202-.032-.302-.048-1.636-.318-3.036-1.15-4.078-1.834-2.723-1.82-5.013-4.2-6.81-7.075C1.917 12.505.992 10.342.472 8.063.259 7.132.006 5.727.294 4.284a3.683 3.683 0 0 1 1.318-2.183L3.45.598l.01-.01C3.998.172 4.595-.01 5.182.063c.586.075 1.114.4 1.524.94.277.338.542.696.794 1.044.126.178.26.358.391.527l1.152 1.533c.885 1.17.725 2.526-.409 3.443-.151.123-.303.254-.454.373-.4.333-.811.674-1.25.994.214.711.54 1.43 1.047 2.289 1.053 1.739 2.202 3.125 3.514 4.24.13.112.283.216.445.33.113.077.23.16.347.245l1.705-1.375c.546-.446 1.144-.633 1.735-.563.597.077 1.127.421 1.534.981zm-1.035.823l-2.324-3.085-.009-.009c-.129-.188-.35-.413-.649-.455-.303-.035-.587.136-.77.285l-1.847 1.495c-.091.075-.372.307-.771.251a.992.992 0 0 1-.462-.186c-.017-.008-.035-.028-.053-.042a6.567 6.567 0 0 0-.445-.32 7.105 7.105 0 0 1-.552-.412c-1.423-1.207-2.666-2.704-3.793-4.574l-.004-.005c-.617-1.054-1.002-1.92-1.242-2.821l-.009-.049c-.053-.294-.08-.725.384-1.103.006-.008.016-.012.027-.018.465-.335.896-.687 1.351-1.061.156-.121.308-.25.464-.38.573-.46.63-.952.183-1.543L6.865 3.415c-.134-.187-.27-.367-.4-.546-.256-.352-.5-.681-.76-1-.004-.01-.008-.013-.012-.018-.135-.18-.358-.4-.66-.441-.246-.029-.51.061-.774.264L2.42 3.163c-.449.363-.722.82-.84 1.396-.18.904-.13 1.889.17 3.193.484 2.125 1.357 4.157 2.754 6.416 1.694 2.707 3.854 4.952 6.414 6.664.937.621 2.196 1.365 3.613 1.645.071.012.148.02.22.031.75.095 1.353-.083 1.902-.562.341-.328.697-.609 1.046-.878.232-.182.447-.351.659-.534-.005.004-.005 0 0 0 .553-.466.615-.99.18-1.563z"/></g></g></svg>