<svg xmlns="http://www.w3.org/2000/svg" width="19" height="23" viewBox="0 0 19 23"><g><g><path fill="#f78a4d" d="M5.891 10.93c-1.71-2.068-1.425-5.612-1.394-5.95.11-2.555 1.247-3.77 2.18-4.339.928-.566 1.896-.653 2.389-.653h.076c.896.024 1.7.25 2.388.676.924.567 2.043 1.778 2.154 4.316.031.338.316 3.882-1.394 5.95-.777.938-1.83 1.428-3.13 1.457H9.017c-1.302-.03-2.355-.519-3.127-1.456zm.893-.854c.555.675 1.305 1.014 2.282 1.022h.044c.982-.008 1.728-.347 2.287-1.022 1.412-1.703 1.102-4.944 1.097-4.975-.004-.01-.004-.026-.004-.04-.138-3.23-2.176-3.75-3.375-3.781H9.06c-.967 0-3.228.37-3.374 3.782 0 .01-.005.024-.005.039-.004.025-.306 3.282 1.102 4.975zM18 20.414a.622.622 0 0 1-.23.3c-.134.089-3.327 2.278-8.668 2.278-5.342 0-8.535-2.184-8.669-2.278a.598.598 0 0 1-.23-.3c-.236-.64-.231-1.91-.227-2.155v-.016c.005-.038.005-.075.005-.12.026-.94.084-3.142 2.011-3.854.013-.004.027-.01.045-.014 2.011-.549 3.667-1.785 3.685-1.799.271-.208.644-.136.835.158.191.29.125.69-.146.89-.076.055-1.843 1.38-4.055 1.99-1.034.396-1.15 1.581-1.181 2.668 0 .043-.004.081-.004.118-.01.425.022 1.09.093 1.47.724.442 3.56 1.959 7.833 1.959 4.29 0 7.11-1.513 7.83-1.952.07-.38.097-1.044.092-1.468-.004-.042-.004-.08-.004-.121-.031-1.089-.147-2.273-1.182-2.671-2.21-.61-3.978-1.93-4.054-1.989a.667.667 0 0 1-.146-.892.574.574 0 0 1 .835-.156c.017.015 1.682 1.25 3.685 1.8.013.005.031.009.044.015 1.928.706 1.985 2.908 2.012 3.852 0 .043.005.081.005.12v.017c.004.244.009 1.516-.214 2.15z"/></g></g></svg>